<svg id="Group_137" data-name="Group 137" xmlns="http://www.w3.org/2000/svg" width="25.828" height="24" viewBox="0 0 25.828 24">
  <path id="Path_48" data-name="Path 48" d="M23.716,19.152a7.057,7.057,0,0,0-10.344,0l-.456.482-.456-.482a7.062,7.062,0,0,0-9.981-.367q-.19.177-.367.367a7.921,7.921,0,0,0,0,10.77L12.246,40.608a.923.923,0,0,0,1.3.035l.035-.035,10.13-10.686A7.92,7.92,0,0,0,23.716,19.152Zm-1.336,9.5h0l-9.463,9.981L3.452,28.651a6.053,6.053,0,0,1,0-8.229,5.217,5.217,0,0,1,7.372-.3q.154.142.3.3l1.125,1.187a.951.951,0,0,0,1.34,0l1.125-1.186a5.217,5.217,0,0,1,7.372-.3q.154.142.3.3A6,6,0,0,1,22.38,28.651Z" transform="translate(0 -16.896)"/>
</svg>
